<svg width="228" height="341" viewBox="0 0 228 341" fill="none" xmlns="http://www.w3.org/2000/svg">
<g filter="url(#filter0_d)">
<path d="M115.762 41.1263C115.883 45.161 114.555 49.1057 112.017 52.2448H117.751C118.168 48.5504 118.168 44.8207 117.751 41.1263H115.762Z" fill="#A74AFF"/>
<path d="M139.612 215.852L142.707 214.034C142.707 214.034 143.278 217.005 147.505 220.664C149.448 222.411 151.873 223.533 154.462 223.882L153.644 224.363C148.498 222.382 143.747 219.5 139.612 215.852Z" fill="#A74AFF"/>
<path d="M144.982 219.908C148.706 221.635 152.909 222.038 156.894 221.048C156.232 222.5 155.082 223.673 153.644 224.363C150.598 223.209 147.692 221.715 144.982 219.908Z" fill="#793BD1"/>
<path d="M207.637 112.284C207.637 112.284 215.557 111.416 222.361 101.645L217.473 100.815C217.473 100.815 215.954 106.386 208.146 109.288L207.637 112.284Z" fill="#FF2A63"/>
<path d="M49.371 0C52.5466 4.18511 57.025 7.19415 62.0998 8.55264L54.8609 9.01913C51.4576 6.9727 48.7656 3.9294 47.1499 0.301667L49.371 0Z" fill="url(#paint0_linear)"/>
<path d="M222.047 300.266C216.837 300.94 211.551 299.861 207.021 297.199L211.769 302.684C215.615 303.672 219.672 303.455 223.391 302.06L222.047 300.266Z" fill="#FF00CF"/>
<path d="M72.5771 279.069C72.6771 282.786 73.938 286.378 76.1831 289.341H80.4653C78.6609 288.254 77.1373 286.758 76.0169 284.974C74.8965 283.189 74.2108 281.167 74.015 279.069H72.5771Z" fill="#FF2A63"/>
<path d="M14.5869 201.633C17.0242 204.447 20.4577 206.208 24.1658 206.544L24.781 203.472C23.7208 203.41 22.6899 203.1 21.7717 202.566C20.8534 202.033 20.0734 201.291 19.4947 200.4L14.5869 201.633Z" fill="#6877FF"/>
<path d="M4 109.84C4 109.84 11.9198 108.973 18.724 99.202L13.8359 98.3715C13.8359 98.3715 12.3175 103.943 4.50891 106.845L4 109.84Z" fill="#FF2A63"/>
<path d="M6.74609 292.79L9.59324 290.816C9.59324 290.816 11.7043 294.651 14.5201 293.403C17.5089 292.079 16.7715 290.261 16.7715 290.261L19.0793 289.166C18.6061 290.213 17.925 291.152 17.0774 291.926C16.2298 292.701 15.2334 293.295 14.1489 293.672C9.25597 295.715 6.74609 292.79 6.74609 292.79Z" fill="#BCA9FF"/>
<path d="M141.174 333L139.221 330.419C139.221 330.419 137.118 328.615 130.957 328.629C124.797 328.643 122.543 332.249 122.543 332.249H127.802C128.389 331.216 129.283 330.393 130.361 329.894C131.439 329.396 132.646 329.247 133.812 329.469C136.595 329.779 139.191 331.024 141.174 333Z" fill="url(#paint1_linear)"/>
</g>
<defs>
<filter id="filter0_d" x="0" y="0" width="227.391" height="341" filterUnits="userSpaceOnUse" color-interpolation-filters="sRGB">
<feFlood flood-opacity="0" result="BackgroundImageFix"/>
<feColorMatrix in="SourceAlpha" type="matrix" values="0 0 0 0 0 0 0 0 0 0 0 0 0 0 0 0 0 0 127 0"/>
<feOffset dy="4"/>
<feGaussianBlur stdDeviation="2"/>
<feColorMatrix type="matrix" values="0 0 0 0 0 0 0 0 0 0 0 0 0 0 0 0 0 0 0.25 0"/>
<feBlend mode="normal" in2="BackgroundImageFix" result="effect1_dropShadow"/>
<feBlend mode="normal" in="SourceGraphic" in2="effect1_dropShadow" result="shape"/>
</filter>
<linearGradient id="paint0_linear" x1="4916.49" y1="242.6" x2="5072.96" y2="242.6" gradientUnits="userSpaceOnUse">
<stop stop-color="#FF9036"/>
<stop offset="1" stop-color="#FFBD0C"/>
</linearGradient>
<linearGradient id="paint1_linear" x1="7174.28" y1="1444.78" x2="7417.3" y2="1444.78" gradientUnits="userSpaceOnUse">
<stop stop-color="#FF9036"/>
<stop offset="1" stop-color="#FFBD0C"/>
</linearGradient>
</defs>
</svg>
